<svg xmlns="http://www.w3.org/2000/svg" width="640" height="480" id="cabo"><defs><clipPath id="a"><path fill-opacity=".67" d="M-123.43 0h682.67v512h-682.67z"></path></clipPath></defs><g fill-rule="evenodd" clip-path="url(#a)" transform="translate(115.72) scale(.94)"><path fill="#fff" d="M-123.43 233.05H723.1v205.97h-846.53z"></path><path fill="#081873" d="M-122.76 0h845.95v256.64h-845.95zm.24 385.87H729.6V512h-852.12z"></path><path fill="#de3929" d="M-122.52 302.55h845.95v39.65h-845.95z"></path><path fill="#ffce08" d="m130.92 399.168 6.65 20.468h21.522l-17.412 12.65 6.65 20.47-17.41-12.65-17.41 12.65 6.65-20.47-17.412-12.65h21.522m192.64-169.138 6.65 20.468h21.522l-17.412 12.65 6.65 20.47-17.41-12.65-17.41 12.65 6.65-20.47-17.412-12.65h21.522M88.27 335.448l6.65 20.468h21.523l-17.412 12.65 6.652 20.47-17.41-12.65-17.412 12.65 6.65-20.47-17.41-12.65h21.52m235.289-26.458 6.65 20.468h21.522l-17.412 12.65 6.65 20.47-17.41-12.65-17.41 12.65 6.65-20.47-17.412-12.65h21.522m-40.44-161.748 6.65 20.468h21.522l-17.412 12.65 6.65 20.47-17.41-12.65-17.41 12.65 6.65-20.47-17.412-12.65h21.522m-64.43-45.218 6.65 20.468h21.522l-17.412 12.65 6.65 20.47-17.41-12.65-17.41 12.65 6.65-20.47-17.412-12.65h21.522m-64.44 2.892 6.65 20.468h21.522l-17.412 12.65 6.65 20.47-17.41-12.65-17.41 12.65 6.65-20.47-17.412-12.65H121m-34.816 43.242 6.65 20.468h21.522l-17.412 12.65 6.65 20.47-17.41-12.65-17.41 12.65 6.65-20.47-17.412-12.65h21.522M198.74 420.408l6.65 20.468h21.522l-17.412 12.65 6.65 20.47-17.41-12.65-17.41 12.65 6.65-20.47-17.412-12.65h21.522m82.17-41.708 6.65 20.468h21.522l-17.412 12.65 6.65 20.47-17.41-12.65-17.41 12.65 6.65-20.47-17.412-12.65h21.522"></path></g></svg>