<svg xmlns="http://www.w3.org/2000/svg" viewBox="0 0 512 512" id="dominican-republic"><path fill="#f0f0f0" d="M0 85.337h512v341.326H0z"></path><path fill="#d80027" d="M0 300.522h211.478v126.141H0z"></path><path fill="#0052b4" d="M0 85.337h211.478v126.152H0z"></path><path fill="#d80027" d="M300.522 85.337H512v126.152H300.522z"></path><path fill="#0052b4" d="M300.522 300.522H512v126.141H300.522z"></path><path fill="#496e2d" d="M300.521 256.006c0 24.588-19.932 44.521-44.521 44.521s-44.521-19.932-44.521-44.521S256 211.485 256 211.485s44.521 19.932 44.521 44.521z"></path><path fill="#0052b4" d="M211.479 256.006c0-24.588 19.932-44.521 44.521-44.521s44.521 19.932 44.521 44.521"></path><path fill="#d80027" d="M230.957 233.745v27.825c0 13.831 11.212 25.042 25.043 25.042 13.832 0 25.043-11.212 25.043-25.042v-27.825h-50.086z"></path></svg>